<?xml version="1.0" encoding="UTF-8"?>
<svg width="16" height="16" version="1.1" xmlns="http://www.w3.org/2000/svg">
 <path d="m2.8887 0.85547a2.0409 2.0409 0 0 0-1.0176 3.8125v1.752l2.041-1.7012v-0.052734a2.0409 2.0409 0 0 0 0.74414-0.74219h4.998l0.35742-0.36328c-1.0187-0.091615-1.5456-0.87873-1.5742-1.6777h-3.7812a2.0409 2.0409 0 0 0-1.7676-1.0273zm9.5957 5.1953-0.4082 0.41406v4.877a2.0409 2.0409 0 0 0-0.74414 0.74414h-6.6758a2.0409 2.0409 0 0 0-0.74414-0.74414v-1.4277l-2.041-2.3086v3.7363a2.0409 2.0409 0 1 0 2.7871 2.7852h6.6738a2.0409 2.0409 0 1 0 2.7539-2.8066h0.03125v-3.7305c-0.77431-0.04489-1.5274-0.56031-1.6328-1.5391z" fill="#fc7f7f" stroke-width="1.0204"/>
 <path d="m10.165 0.8698c-1.3333 0-1.3333 2 0 2h1.586l-5.4476 5.5454-2.5096-2.7642-1.536 1.28 3.2116 3.6042c0.37732 0.45066 1.0601 0.48029 1.475 0.064l6.2206-6.3174v1.588c0 1.3333 2 1.3333 2 0v-4c0-0.55228-0.44772-1-1-1z" fill="#fc7f7f"/>
</svg>
